# xmcd
#
# Track frame offsets:
#	150
#	15301
#	30387
#	44716
#	53190
#	61963
#	73754
#	91049
#	100576
#	114458
#	125727
#	134872
#	142352
#	151420
#
# Disc length: 2208 seconds
# Revision: 0
# Processed by: cddbd v1.5.2PL0 Copyright (c) Steve Scherf et al.
# Submitted via: dBpowerAMP V12.0
#
DISCID=c9089e0e
DTITLE=Punches Family - Born To Be With You
DYEAR=2008
DGENRE=Bluegrass
TTITLE0=Already Gone
TTITLE1=Virginia
TTITLE2=Consider The Lilies
TTITLE3=He's Got The Whole World In His Hands
TTITLE4=Little Redwing
TTITLE5=Ruby
TTITLE6=Beulah Land
TTITLE7=Sunnyside
TTITLE8=Daddy's Girl
TTITLE9=Faded Love
TTITLE10=Born To Be With You
TTITLE11=Dear Lord
TTITLE12=Rocky Top
TTITLE13=Fields Have Turned Brown
EXTD=
EXTT0=
EXTT1=
EXTT2=
EXTT3=
EXTT4=
EXTT5=
EXTT6=
EXTT7=
EXTT8=
EXTT9=
EXTT10=
EXTT11=
EXTT12=
EXTT13=
PLAYORDER=
